<svg xmlns="http://www.w3.org/2000/svg" viewBox="0 0 500 372.61"><defs><style>.cls-1{fill:#e6e6e6;}.cls-2{fill:#e0e0e0;}.cls-3{fill:#f5f5f5;}.cls-16,.cls-19,.cls-26,.cls-4{fill:#fff;}.cls-13,.cls-15,.cls-18,.cls-23,.cls-5{fill:#fafafa;}.cls-6{fill:#f0f0f0;}.cls-14,.cls-17,.cls-22,.cls-24,.cls-27,.cls-32,.cls-7{fill:#407bff;}.cls-26,.cls-8,.cls-9{opacity:0.6;}.cls-10,.cls-19,.cls-20{opacity:0.4;}.cls-11{opacity:0.2;}.cls-12{opacity:0.3;}.cls-13{opacity:0.84;}.cls-14{opacity:0.23;}.cls-15{opacity:0.67;}.cls-16{opacity:0.41;}.cls-17{opacity:0.19;}.cls-18{opacity:0.47;}.cls-21{opacity:0.5;}.cls-22,.cls-31{opacity:0.1;}.cls-23{opacity:0.48;}.cls-24{opacity:0.14;}.cls-25{fill:#e58a7b;}.cls-27{opacity:0.28;}.cls-28{fill:#cf6f64;}.cls-29{fill:#263238;}.cls-30{fill:#df5753;}.cls-32{opacity:0.18;}</style></defs><title>hero</title><g id="Background_complete" data-name="Background complete"><rect class="cls-1" y="327.45" width="500" height="0.25"/><rect class="cls-1" x="427.32" y="336.1" width="18.53" height="0.25"/><rect class="cls-1" x="394.59" y="336.1" width="26.16" height="0.25"/><rect class="cls-1" x="330.03" y="336.35" width="19.36" height="0.25"/><rect class="cls-1" x="41.58" y="334.08" width="43.19" height="0.25"/><rect class="cls-1" x="26.34" y="334.08" width="6.33" height="0.25"/><rect class="cls-1" x="101.97" y="341.6" width="62.98" height="0.25"/><path class="cls-1" d="M237,337.8H43.91a5.71,5.71,0,0,1-5.7-5.71V60.66A5.71,5.71,0,0,1,43.91,55H237a5.71,5.71,0,0,1,5.71,5.71V332.09A5.71,5.71,0,0,1,237,337.8ZM43.91,55.2a5.46,5.46,0,0,0-5.45,5.46V332.09a5.46,5.46,0,0,0,5.45,5.46H237a5.47,5.47,0,0,0,5.46-5.46V60.66A5.47,5.47,0,0,0,237,55.2Z" transform="translate(0 -54.95)"/><path class="cls-1" d="M453.31,337.8H260.21a5.72,5.72,0,0,1-5.71-5.71V60.66A5.72,5.72,0,0,1,260.21,55h193.1A5.71,5.71,0,0,1,459,60.66V332.09A5.71,5.71,0,0,1,453.31,337.8ZM260.21,55.2a5.47,5.47,0,0,0-5.46,5.46V332.09a5.47,5.47,0,0,0,5.46,5.46h193.1a5.47,5.47,0,0,0,5.46-5.46V60.66a5.47,5.47,0,0,0-5.46-5.46Z" transform="translate(0 -54.95)"/><rect class="cls-2" x="285.32" y="30.61" width="135.7" height="129.56"/><rect class="cls-3" x="288.33" y="30.61" width="135.7" height="129.56"/><rect class="cls-4" x="297.48" y="87.91" width="117.4" height="124.87" transform="translate(506.53 -260.79) rotate(90)"/><rect class="cls-2" x="358.78" y="149.2" width="117.4" height="2.28" transform="translate(567.82 -322.09) rotate(90)"/><rect class="cls-3" x="290.57" y="117.6" width="131.22" height="8.16"/><rect class="cls-1" x="226.47" y="264.3" width="26.78" height="59.39"/><rect class="cls-1" x="231.62" y="323.68" width="117.92" height="3.76"/><rect class="cls-5" x="253.26" y="319.25" width="101.42" height="59.39" transform="translate(607.93 642.93) rotate(180)"/><rect class="cls-1" x="263.79" y="326.56" width="80.36" height="19.48" transform="translate(607.93 617.64) rotate(180)"/><rect class="cls-1" x="263.79" y="351.85" width="80.36" height="19.48" transform="translate(607.93 668.22) rotate(180)"/><rect class="cls-5" x="290.74" y="280.01" width="26.45" height="2.67" rx="1.18"/><rect class="cls-5" x="290.74" y="305.3" width="26.45" height="2.67" rx="1.18"/><rect class="cls-1" x="62.37" y="201.46" width="27.32" height="118.47"/><rect class="cls-1" x="67.62" y="319.94" width="134.72" height="7.51"/><rect class="cls-5" x="89.69" y="256.42" width="117.89" height="118.47" transform="translate(297.27 576.36) rotate(180)"/><rect class="cls-1" x="100.43" y="271" width="96.41" height="38.86" transform="translate(297.27 525.9) rotate(180)"/><rect class="cls-1" x="100.43" y="321.45" width="96.41" height="38.86" transform="translate(297.27 626.81) rotate(180)"/><path class="cls-5" d="M159.46,293.09H137.81a2.67,2.67,0,0,1-2.66-2.66h0a2.67,2.67,0,0,1,2.66-2.67h21.65a2.67,2.67,0,0,1,2.66,2.67h0A2.67,2.67,0,0,1,159.46,293.09Z" transform="translate(0 -54.95)"/><path class="cls-5" d="M159.46,343.54H137.81a2.67,2.67,0,0,1-2.66-2.66h0a2.67,2.67,0,0,1,2.66-2.66h21.65a2.67,2.67,0,0,1,2.66,2.66h0A2.66,2.66,0,0,1,159.46,343.54Z" transform="translate(0 -54.95)"/><path class="cls-5" d="M315,309.83s-20.12-34.69,7.79-62.3c0,0,7.29,4.74,7.18,11.13s-7.8,8-6.15,13.33,8.91,10.55,4.15,15,.76,8.32.44,13.72S315,309.83,315,309.83Z" transform="translate(0 -54.95)"/><path class="cls-1" d="M285.58,299.92s.69,19.33,27.07,19.33,27.06-19.33,27.06-19.33Z" transform="translate(0 -54.95)"/><path class="cls-1" d="M316.52,313s8.15-39.27-27-56.67c0,0-5.41,6.81-3.29,12.83s9.92,5.13,10,10.71-5.14,12.83.78,15.5,1.89,8.15,3.9,13.17S316.52,313,316.52,313Z" transform="translate(0 -54.95)"/><path class="cls-6" d="M156.05,145.84s.69,11.62,27.06,11.62,27.07-11.62,27.07-11.62Z" transform="translate(0 -54.95)"/><polygon class="cls-3" points="84.53 110.97 80.2 139.85 84.53 139.85 111.09 110.97 84.53 110.97"/><polygon class="cls-2" points="80.2 110.97 80.2 139.85 106.76 110.97 80.2 110.97"/><polygon class="cls-3" points="188.7 110.97 184.36 139.85 188.7 139.85 215.26 110.97 188.7 110.97"/><polygon class="cls-2" points="184.36 110.97 184.36 139.85 210.93 110.97 184.36 110.97"/><rect class="cls-2" x="60.7" y="157.46" width="28.89" height="9.01" transform="translate(150.28 268.98) rotate(180)"/><rect class="cls-3" x="89.59" y="102.51" width="143.63" height="9.01"/><path class="cls-2" d="M119.1,120.44c7.47,1,12.09-15.19-4.4-28.93C115.59,107.41,106.09,118.65,119.1,120.44Z" transform="translate(0 -54.95)"/><path class="cls-2" d="M124.59,141.7c10.82-7.59,3.41-34.1-30.09-32.18C109,129,105.71,154.92,124.59,141.7Z" transform="translate(0 -54.95)"/><path class="cls-2" d="M120.77,141.52c-7.2-7.75,3-27.25,28.93-20.13C135.08,134.23,133.31,155,120.77,141.52Z" transform="translate(0 -54.95)"/><path class="cls-3" d="M130,130.22c2.49-3,5.43-6.44,4.72-10s-2.5-6.29-1.08-10.13c1.7-4.6,1.37-10.09-1.5-9.63s-6.09,3.83-6,8.28-2.77,5.7-5.42,8-3.68,5.64-4.16,9c-.83,5.22-7.6,4.23-9.4,8.77-1.85,4.38,1.85,10.22,7.77,11.56s10.14,2.18,14.18-2.44C133.21,138.64,126.31,134.56,130,130.22Z" transform="translate(0 -54.95)"/><polygon class="cls-1" points="109.62 102.51 131.87 102.51 133.55 87.71 107.94 87.71 109.62 102.51"/><rect class="cls-1" x="106.28" y="142.05" width="28.92" height="3.26" transform="translate(241.49 232.4) rotate(180)"/><rect class="cls-3" x="157.7" y="185.53" width="24.16" height="15.93"/><rect class="cls-2" x="139.57" y="240.48" width="18.14" height="15.93" transform="translate(297.27 441.95) rotate(180)"/><rect class="cls-3" x="122.12" y="177.05" width="10.36" height="24.42"/><rect class="cls-2" x="114.34" y="232" width="7.78" height="24.42" transform="translate(236.46 433.46) rotate(180)"/></g><g id="Shadow"><ellipse class="cls-3" cx="250" cy="361.29" rx="193.89" ry="11.32"/></g><g id="Plant_3" data-name="Plant 3"><path class="cls-7" d="M157.18,231.82a13,13,0,0,0,3.62,1,11,11,0,0,0,7.33-1.7c3.43-2.22,5.51-6.11,5.18-9.69a.7.7,0,0,0-.71-.63,20.93,20.93,0,0,0-16.27,7.58c-.94-4-1.77-8.23-2.37-12.59a12.59,12.59,0,0,0,5.69,2.44,7.9,7.9,0,0,0,2.57-.11c4.47-.92,8-5.71,11.22-10.76a.77.77,0,0,0,.1-.62.67.67,0,0,0-.4-.45c-8.15-3.4-16.79,3.95-19.55,6.6a104.07,104.07,0,0,1-.67-11.06,30.13,30.13,0,0,0,5.35,1.18c4.39.51,8.08-.25,10.72-2.29,3.13-2.4,4.58-6.39,4.19-11.52a.71.71,0,0,0-.83-.64c-9.28,1.35-16.41,7.29-19.38,10.15,0-.66,0-1.32.07-2a.71.71,0,0,0-.13-.46,8.47,8.47,0,0,0-3.54-6.35c-2.33-1.51-5.59-1.71-9.7-.61a.9.9,0,0,0-.56.47.76.76,0,0,0,0,.69c.17.29,3.76,6.35,10.09,7.1a11.72,11.72,0,0,0,2.06,0c-.08,1.82-.11,3.65-.08,5.48A19.93,19.93,0,0,0,135,198.49a.9.9,0,0,0-.57.34.77.77,0,0,0-.14.62c1.26,6.19,4.31,10.36,8.16,11.14.17,0,.35.06.54.09,2,.23,4.86-.36,8.34-3.67a115.68,115.68,0,0,0,1.43,12.62c-3.36-2.17-11.07-6.14-17.93-2.28a.8.8,0,0,0-.37,1c2.79,5.64,5.83,8.58,9.31,9h.09c2.9.31,6-1.13,9.51-4.36.79,4.08,1.73,8,2.73,11.64-3.24-2.71-7.38-2.83-12.79-.4a.87.87,0,0,0-.48.58.7.7,0,0,0,.19.68c.23.23,4.16,4,9,4.55a9.38,9.38,0,0,0,5.39-.93,158.7,158.7,0,0,0,7.24,19.52.76.76,0,0,0,.62.43,1,1,0,0,0,.52-.09.9.9,0,0,0,.44-1.15A165,165,0,0,1,157.18,231.82Z" transform="translate(0 -54.95)"/><g class="cls-8"><path d="M157.18,231.82a13,13,0,0,0,3.62,1,11,11,0,0,0,7.33-1.7c3.43-2.22,5.51-6.11,5.18-9.69a.7.7,0,0,0-.71-.63,20.93,20.93,0,0,0-16.27,7.58c-.94-4-1.77-8.23-2.37-12.59a12.59,12.59,0,0,0,5.69,2.44,7.9,7.9,0,0,0,2.57-.11c4.47-.92,8-5.71,11.22-10.76a.77.77,0,0,0,.1-.62.67.67,0,0,0-.4-.45c-8.15-3.4-16.79,3.95-19.55,6.6a104.07,104.07,0,0,1-.67-11.06,30.13,30.13,0,0,0,5.35,1.18c4.39.51,8.08-.25,10.72-2.29,3.13-2.4,4.58-6.39,4.19-11.52a.71.71,0,0,0-.83-.64c-9.28,1.35-16.41,7.29-19.38,10.15,0-.66,0-1.32.07-2a.71.71,0,0,0-.13-.46,8.47,8.47,0,0,0-3.54-6.35c-2.33-1.51-5.59-1.71-9.7-.61a.9.9,0,0,0-.56.47.76.76,0,0,0,0,.69c.17.29,3.76,6.35,10.09,7.1a11.72,11.72,0,0,0,2.06,0c-.08,1.82-.11,3.65-.08,5.48A19.93,19.93,0,0,0,135,198.49a.9.9,0,0,0-.57.34.77.77,0,0,0-.14.62c1.26,6.19,4.31,10.36,8.16,11.14.17,0,.35.06.54.09,2,.23,4.86-.36,8.34-3.67a115.68,115.68,0,0,0,1.43,12.62c-3.36-2.17-11.07-6.14-17.93-2.28a.8.8,0,0,0-.37,1c2.79,5.64,5.83,8.58,9.31,9h.09c2.9.31,6-1.13,9.51-4.36.79,4.08,1.73,8,2.73,11.64-3.24-2.71-7.38-2.83-12.79-.4a.87.87,0,0,0-.48.58.7.7,0,0,0,.19.68c.23.23,4.16,4,9,4.55a9.38,9.38,0,0,0,5.39-.93,158.7,158.7,0,0,0,7.24,19.52.76.76,0,0,0,.62.43,1,1,0,0,0,.52-.09.9.9,0,0,0,.44-1.15A165,165,0,0,1,157.18,231.82Z" transform="translate(0 -54.95)"/></g></g><g id="Computer"><rect class="cls-7" x="168.86" y="153.38" width="256.18" height="163.3" rx="7.19"/><rect class="cls-9" x="168.86" y="153.38" width="256.18" height="163.3" rx="7.19"/><path class="cls-7" d="M329.72,416.24H269.9c5.86-22.1,2.35-45.91-10.52-68H319.2C332.07,370.33,335.58,394.14,329.72,416.24Z" transform="translate(0 -54.95)"/><path class="cls-7" d="M326.6,416.24H266.77c5.86-22.1,2.36-45.91-10.52-68h59.83C329,370.33,332.46,394.14,326.6,416.24Z" transform="translate(0 -54.95)"/><path class="cls-7" d="M328.64,380H268.16a97.05,97.05,0,0,0-11.91-31.74h60.48A97.5,97.5,0,0,1,328.64,380Z" transform="translate(0 -54.95)"/><g class="cls-10"><path d="M329.72,416.24H269.9c5.86-22.1,2.35-45.91-10.52-68H319.2C332.07,370.33,335.58,394.14,329.72,416.24Z" transform="translate(0 -54.95)"/><path d="M326.6,416.24H266.77c5.86-22.1,2.36-45.91-10.52-68h59.83C329,370.33,332.46,394.14,326.6,416.24Z" transform="translate(0 -54.95)"/><path d="M328.64,380H268.16a97.05,97.05,0,0,0-11.91-31.74h60.48A97.5,97.5,0,0,1,328.64,380Z" transform="translate(0 -54.95)"/></g><path class="cls-7" d="M326.6,416.24H266.77c5.86-22.1,2.36-45.91-10.52-68h59.83C329,370.33,332.46,394.14,326.6,416.24Z" transform="translate(0 -54.95)"/><path class="cls-11" d="M326.6,416.24H266.77c5.86-22.1,2.36-45.91-10.52-68h59.83C329,370.33,332.46,394.14,326.6,416.24Z" transform="translate(0 -54.95)"/><path class="cls-11" d="M328,380h-59.9a97.89,97.89,0,0,0-11.8-31.74h59.9A97.89,97.89,0,0,1,328,380Z" transform="translate(0 -54.95)"/><rect class="cls-7" x="165.46" y="153.38" width="256.18" height="163.3" rx="7.19"/><rect class="cls-12" x="165.46" y="153.38" width="256.18" height="163.3" rx="7.19"/><path class="cls-7" d="M315.5,411.51H247.2a4.73,4.73,0,0,0-4.73,4.73h77.76A4.73,4.73,0,0,0,315.5,411.51Z" transform="translate(0 -54.95)"/><path class="cls-12" d="M315.5,411.51H247.2a4.73,4.73,0,0,0-4.73,4.73h77.76A4.73,4.73,0,0,0,315.5,411.51Z" transform="translate(0 -54.95)"/><rect class="cls-7" x="165.46" y="161.64" width="256.18" height="131.63"/><rect class="cls-13" x="165.37" y="161.64" width="256.18" height="131.63"/><rect class="cls-14" x="208.98" y="171.82" width="178.27" height="106.64" rx="2.84"/><path class="cls-15" d="M386.5,234.11v96.46a2.84,2.84,0,0,1-2.84,2.84H211.07a2.85,2.85,0,0,1-2.84-2.84V234.11Z" transform="translate(0 -54.95)"/><rect class="cls-16" x="208.75" y="182.93" width="177.23" height="91.75"/><path class="cls-17" d="M349.79,301.23a23.55,23.55,0,1,1,23.55-23.55A23.58,23.58,0,0,1,349.79,301.23Zm0-46.85a23.3,23.3,0,1,0,23.3,23.3A23.32,23.32,0,0,0,349.79,254.38Z" transform="translate(0 -54.95)"/><path class="cls-17" d="M310.2,301.23a23.55,23.55,0,1,1,23.55-23.55A23.59,23.59,0,0,1,310.2,301.23Zm0-46.85a23.3,23.3,0,1,0,23.3,23.3A23.33,23.33,0,0,0,310.2,254.38Z" transform="translate(0 -54.95)"/><path class="cls-17" d="M373.22,314.39h-139a.12.12,0,0,1-.12-.13v-3.87a.12.12,0,0,1,.12-.13h139a.12.12,0,0,1,.12.13v3.87A.12.12,0,0,1,373.22,314.39Zm-138.91-.25H373.09v-3.63H234.31Z" transform="translate(0 -54.95)"/><path class="cls-17" d="M381,321.15H213.76a.12.12,0,0,1-.12-.13V246.5a.12.12,0,0,1,.12-.13H381a.12.12,0,0,1,.12.13V321A.12.12,0,0,1,381,321.15Zm-167.08-.25h167V246.62H213.89Z" transform="translate(0 -54.95)"/><path class="cls-4" d="M378.77,230.46a1.51,1.51,0,1,0,1.51-1.5A1.5,1.5,0,0,0,378.77,230.46Z" transform="translate(0 -54.95)"/><circle class="cls-4" cx="374.93" cy="175.51" r="1.51"/><circle class="cls-4" cx="369.58" cy="175.51" r="1.51"/><rect class="cls-7" x="208.23" y="178.97" width="178.27" height="0.38"/><polygon class="cls-18" points="233.93 161.65 210.4 293.28 233.69 293.28 257.22 161.65 233.93 161.65"/><polygon class="cls-18" points="262.9 161.65 239.38 293.28 251.02 293.28 274.55 161.65 262.9 161.65"/><polygon class="cls-19" points="393.06 161.65 369.53 293.28 375.36 293.28 398.88 161.65 393.06 161.65"/><polygon class="cls-19" points="382.81 161.65 359.28 293.28 365.11 293.28 388.63 161.65 382.81 161.65"/><path class="cls-7" d="M331.77,411.51H319.54a4.73,4.73,0,0,0-4.73,4.73h21.68A4.72,4.72,0,0,0,331.77,411.51Z" transform="translate(0 -54.95)"/><path class="cls-20" d="M331.77,411.51H319.54a4.73,4.73,0,0,0-4.73,4.73h21.68A4.72,4.72,0,0,0,331.77,411.51Z" transform="translate(0 -54.95)"/><path class="cls-7" d="M298.45,360.23a4.9,4.9,0,1,1-4.9-4.9A4.9,4.9,0,0,1,298.45,360.23Z" transform="translate(0 -54.95)"/><path class="cls-21" d="M298.45,360.23a4.9,4.9,0,1,1-4.9-4.9A4.9,4.9,0,0,1,298.45,360.23Z" transform="translate(0 -54.95)"/></g><g id="Ipad"><rect class="cls-7" x="110.21" y="176.61" width="126.73" height="184.67" rx="6.99"/><rect class="cls-9" x="110.21" y="176.61" width="126.73" height="184.67" rx="6.99"/><rect class="cls-7" x="106.86" y="176.61" width="126.73" height="184.67" rx="6.99"/><rect class="cls-12" x="106.86" y="176.61" width="126.73" height="184.67" rx="6.99"/><rect class="cls-5" x="106.86" y="184.64" width="126.73" height="160.3"/><rect class="cls-22" x="106.86" y="184.64" width="126.73" height="160.3"/><polygon class="cls-23" points="151.79 185.03 122.79 345.34 144.94 345.34 173.94 185.03 151.79 185.03"/><polygon class="cls-23" points="180.52 184.64 151.52 344.94 162.59 344.94 191.59 184.64 180.52 184.64"/><circle class="cls-7" cx="170.22" cy="353.01" r="4.76"/><circle class="cls-21" cx="170.22" cy="353.01" r="4.76"/><path class="cls-7" d="M171.32,235.26a1.1,1.1,0,1,1-1.1-1.1A1.1,1.1,0,0,1,171.32,235.26Z" transform="translate(0 -54.95)"/><path class="cls-21" d="M171.32,235.26a1.1,1.1,0,1,1-1.1-1.1A1.1,1.1,0,0,1,171.32,235.26Z" transform="translate(0 -54.95)"/></g><g id="Character"><path class="cls-7" d="M328.51,204l7.63-1.43a.84.84,0,0,0,.65-1.12l-6-17.77a1.18,1.18,0,0,0-1.29-.76l-7.62,1.42a.84.84,0,0,0-.65,1.13l6,17.77A1.16,1.16,0,0,0,328.51,204Z" transform="translate(0 -54.95)"/><path class="cls-9" d="M328.51,204l7.63-1.43a.84.84,0,0,0,.65-1.12l-6-17.77a1.18,1.18,0,0,0-1.29-.76l-7.62,1.42a.84.84,0,0,0-.65,1.13l6,17.77A1.16,1.16,0,0,0,328.51,204Z" transform="translate(0 -54.95)"/><path class="cls-7" d="M329.45,203.86l7.62-1.42a.84.84,0,0,0,.65-1.13l-6-17.77a1.18,1.18,0,0,0-1.29-.76l-7.62,1.43a.83.83,0,0,0-.65,1.12l6,17.77A1.18,1.18,0,0,0,329.45,203.86Z" transform="translate(0 -54.95)"/><path class="cls-12" d="M329.45,203.86l7.62-1.42a.84.84,0,0,0,.65-1.13l-6-17.77a1.18,1.18,0,0,0-1.29-.76l-7.62,1.43a.83.83,0,0,0-.65,1.12l6,17.77A1.18,1.18,0,0,0,329.45,203.86Z" transform="translate(0 -54.95)"/><polygon class="cls-5" points="327.75 146.94 337.31 145.15 331.93 129.21 322.36 130.99 327.75 146.94"/><polygon class="cls-24" points="327.75 146.94 337.31 145.15 331.93 129.21 322.36 130.99 327.75 146.94"/><polygon class="cls-25" points="322.36 137.88 323.11 136.14 330.31 144.23 324.08 144.72 322.36 137.88"/><circle class="cls-7" cx="199.35" cy="59.71" r="15.43"/><path class="cls-7" d="M199.35,133a18.47,18.47,0,0,1-3.16-.27l.17-1a17.83,17.83,0,0,0,6,0l.17,1A18.91,18.91,0,0,1,199.35,133Zm-9.13-2.44a18.31,18.31,0,0,1-4.87-4.07l.77-.65a17.23,17.23,0,0,0,4.6,3.86Zm18.28,0-.5-.86a17.23,17.23,0,0,0,4.6-3.86l.76.64A18.15,18.15,0,0,1,208.5,130.5ZM182.16,121a18.22,18.22,0,0,1-1.1-6.26h1a17.19,17.19,0,0,0,1,5.91Zm34.38,0-.94-.34a17.19,17.19,0,0,0,1-5.91l.68,0,.32,0A18.22,18.22,0,0,1,216.54,120.92Zm-33.46-12.13-.94-.34a18.27,18.27,0,0,1,3.17-5.51l.76.64A17.36,17.36,0,0,0,183.08,108.79Zm32.5-.1a17.2,17.2,0,0,0-3-5.18l.77-.65a18.42,18.42,0,0,1,3.2,5.48Zm-24.92-9-.5-.86a17.92,17.92,0,0,1,6-2.19l.17,1A17.29,17.29,0,0,0,190.66,99.71Zm17.28,0a17,17,0,0,0-5.64-2l.17-1a18.28,18.28,0,0,1,6,2.15Z" transform="translate(0 -54.95)"/><rect class="cls-7" x="316.39" y="137.74" width="3" height="1"/><path class="cls-7" d="M310.38,193.69h-6v-1h6ZM298.3,193a19.92,19.92,0,0,1-5.6-2.53l.55-.83a19,19,0,0,0,5.31,2.39Zm-10.18-6.62a20.07,20.07,0,0,1-3.13-5.27l.93-.37a19.14,19.14,0,0,0,3,5Zm-4.53-11.25c0-.51,0-1,0-1.54a20.17,20.17,0,0,1,.52-4.58l1,.23a19.21,19.21,0,0,0-.49,4.35c0,.49,0,1,0,1.47Zm3.62-11.3-.86-.51a20.22,20.22,0,0,1,3.9-4.74l.67.75A19.11,19.11,0,0,0,287.21,163.8Zm8.6-7.69-.41-.91a19.82,19.82,0,0,1,5.91-1.63l.12,1A19.16,19.16,0,0,0,295.81,156.11Zm24.24-1.68h-.66v-1h.66a19.39,19.39,0,0,0,5.15-.7l.27,1A20.19,20.19,0,0,1,320.05,154.43Zm-6.67,0h-6v-1h6Zm17.68-3.28-.55-.83a19.2,19.2,0,0,0,4.34-3.9l.77.63A19.77,19.77,0,0,1,331.06,151.15Zm7.69-9.38-.93-.37a19.47,19.47,0,0,0,1.31-5.69l1,.08A20.42,20.42,0,0,1,338.75,141.77Zm-.08-11.87a19.1,19.1,0,0,0-2.19-5.41l.86-.51a20,20,0,0,1,2.3,5.69Zm-5.91-9.9a19.36,19.36,0,0,0-4.89-3.17l.4-.91a20,20,0,0,1,5.15,3.33Zm-10.52-4.71a19.77,19.77,0,0,0-2.18-.12h-3.77v-1h3.76a17.25,17.25,0,0,1,2.3.13Zm-12-.12h-6v-1h6Zm-12,0h-6v-1h6Zm-12,0h-6v-1h6Zm-12,0h-6v-1h6Zm-12,0h-6v-1h6Zm-12,0h-6v-1h6Zm-12,0h-6v-1h6Z" transform="translate(0 -54.95)"/><rect class="cls-7" x="223.06" y="59.21" width="3" height="1"/><rect class="cls-7" x="198.93" y="81.27" width="0.84" height="2.51"/><path class="cls-7" d="M95,302.28h-.83v-5H95Zm0-10h-.83v-5H95Zm91.27-2.57a13.51,13.51,0,0,1-2.91-.32l.18-.81a13.12,13.12,0,0,0,4.84.12l.13.82A13.91,13.91,0,0,1,186.25,289.66Zm-51.54,0-.05-.84a12.71,12.71,0,0,0,4.68-1.21l.36.75A13.51,13.51,0,0,1,134.71,289.63ZM129.6,289a13.49,13.49,0,0,1-4.49-2.53l.54-.64a12.66,12.66,0,0,0,4.21,2.38Zm63.72-1.31-.44-.71a12.77,12.77,0,0,0,3.56-3.27l.68.5A13.56,13.56,0,0,1,193.32,287.66Zm-14.71-.37a13.56,13.56,0,0,1-3.62-3.66l.7-.47a12.65,12.65,0,0,0,3.4,3.44Zm-34.78-2-.61-.56a12.72,12.72,0,0,0,2.52-4.13l.79.29A13.51,13.51,0,0,1,143.83,285.26Zm-21.94-2.84a13.35,13.35,0,0,1-1.48-4.94l.83-.08a12.55,12.55,0,0,0,1.39,4.63ZM95,282.18h-.83v-5H95Zm104.36-2.65-.81-.21a13.13,13.13,0,0,0,.4-3.18v-1.71h.84v1.71A13.82,13.82,0,0,1,199.34,279.53ZM173,278.87a13.82,13.82,0,0,1-.28-2.73v-2.36h.84v2.36a12.93,12.93,0,0,0,.26,2.56Zm-25.64-3.08h-.83v-5h.83Zm-26.19-3.37h-.84v-5h.84Zm-26.2-.3h-.83v-5H95Zm104.79-2.71h-.84v-5h.84Zm-26.2-.66h-.84v-3.54a11.32,11.32,0,0,0-.08-1.43l.83-.1a13.08,13.08,0,0,1,.09,1.53Zm-26.2-3h-.83v-.53a13.52,13.52,0,0,1,.78-4.55l.79.28a12.62,12.62,0,0,0-.74,4.27Zm-27.32-3.26a12.57,12.57,0,0,0-1.93-4.44l.69-.47a13.3,13.3,0,0,1,2,4.73Zm-24.71-.28-.81-.2a13.4,13.4,0,0,1,2.16-4.68l.67.49A12.81,12.81,0,0,0,95.34,262.2Zm104.43-2.85h-.84v-5h.84Zm-28.57-.18a12.73,12.73,0,0,0-3.07-3.74l.53-.64a13.54,13.54,0,0,1,3.28,4Zm-20.62-2.38-.63-.56a13.48,13.48,0,0,1,4.1-3.13l.37.75A12.5,12.5,0,0,0,150.58,256.79Zm-35.9-2.14a12.52,12.52,0,0,0-4.46-1.86l.17-.82a13.33,13.33,0,0,1,4.75,2Zm-13.8-.15-.44-.71a13.2,13.2,0,0,1,4.8-1.88l.15.83A12.53,12.53,0,0,0,100.88,254.5Zm63-1.38a12.6,12.6,0,0,0-3.82-.59c-.37,0-.66,0-1,0l-.06-.84c.34,0,.69,0,1,0h0a13.73,13.73,0,0,1,4.08.62Zm35.89-3.82h-.84v-5h.84Zm0-10.05h-.84v-5h.84Zm0-10.05h-.84v-5h.84Zm0-10h-.84v-5h.84Zm0-10.05h-.84v-5h.84Zm0-10.06h-.84v-5h.84Zm0-10h-.84v-5h.84Zm0-10.05h-.84v-5h.84Zm0-10.05h-.84v-5h.84Zm0-10h-.84v-5h.84Zm0-10.05h-.84v-5h.84Z" transform="translate(0 -54.95)"/><rect class="cls-7" x="94.15" y="252.46" width="0.84" height="2.51"/><path class="cls-4" d="M197.46,122.19a1.53,1.53,0,0,1-1.06-.44l-5.24-5.24a1.51,1.51,0,0,1,0-2.12,1.49,1.49,0,0,1,2.12,0l4.18,4.18,7.95-7.95a1.5,1.5,0,0,1,2.12,2.12l-9,9A1.49,1.49,0,0,1,197.46,122.19Z" transform="translate(0 -54.95)"/><path class="cls-25" d="M385.5,152.11c-1,5-3.18,15,.3,18.35,0,0-1.36,5-10.59,5-10.16,0-4.86-5-4.86-5,5.55-1.32,5.4-5.43,4.44-9.29Z" transform="translate(0 -54.95)"/><path class="cls-7" d="M365.28,172.17c0-.75,1.14-1.52,2.8-2.12.89-.33,1.76-1.58,3.11-1.81,1-.17,2.29.69,3.57.6,1.07-.08,2.19-1.12,3.43-1.13s2.24,1,3.46,1.07c.76,0,1.52-.92,2.16-.86s1.33,1.15,1.94,1.26c.81.14,1.72-.67,2.27-.49.88.28,1,1.47,1.39,1.79,1.12.91,2,1.77,1,1.93-2.47.39-2.57-1-5.07-1s-2.5,1-5,.95-2.49-1-5-1-2.46.69-5,.95A13.15,13.15,0,0,1,365.28,172.17Z" transform="translate(0 -54.95)"/><g class="cls-8"><path d="M365.28,172.17c0-.75,1.14-1.52,2.8-2.12.89-.33,1.76-1.58,3.11-1.81,1-.17,2.29.69,3.57.6,1.07-.08,2.19-1.12,3.43-1.13s2.24,1,3.46,1.07c.76,0,1.52-.92,2.16-.86s1.33,1.15,1.94,1.26c.81.14,1.72-.67,2.27-.49.88.28,1,1.47,1.39,1.79,1.12.91,2,1.77,1,1.93-2.47.39-2.57-1-5.07-1s-2.5,1-5,.95-2.49-1-5-1-2.46.69-5,.95A13.15,13.15,0,0,1,365.28,172.17Z" transform="translate(0 -54.95)"/></g><path class="cls-25" d="M403.66,181.23c1.3,2.75,2.32,5.38,3.35,8.12s1.86,5.5,2.66,8.29a87.18,87.18,0,0,1,2,8.56c.24,1.45.49,2.9.65,4.39.1.73.19,1.47.24,2.22l.17,2.3a14.15,14.15,0,0,1-1,5.56,31.72,31.72,0,0,1-2.05,4.3,62.78,62.78,0,0,1-5,7.36A111.37,111.37,0,0,1,393,245l-3.12-2.88c1.65-2.18,3.34-4.42,4.92-6.68s3.16-4.52,4.59-6.83a66.12,66.12,0,0,0,3.88-7,25,25,0,0,0,1.34-3.41,7.62,7.62,0,0,0,.4-2.69l-.25-1.89c-.07-.65-.18-1.3-.31-2-.21-1.3-.5-2.61-.79-3.91s-.62-2.6-1-3.9-.72-2.6-1.12-3.89c-.79-2.58-1.7-5.15-2.64-7.69s-2-5.12-3-7.49Z" transform="translate(0 -54.95)"/><path class="cls-7" d="M400.25,172.37c3.48.76,7.19,13.28,7.19,13.28l-13.7,8.74s-4.3-10-2.64-14.36C392.84,175.53,396.14,171.47,400.25,172.37Z" transform="translate(0 -54.95)"/><path class="cls-26" d="M400.25,172.37c3.48.76,7.19,13.28,7.19,13.28l-13.7,8.74s-4.3-10-2.64-14.36C392.84,175.53,396.14,171.47,400.25,172.37Z" transform="translate(0 -54.95)"/><path class="cls-27" d="M398.39,176.63l-4.68,17.68,0,.08,5.48-3.5Z" transform="translate(0 -54.95)"/><path class="cls-7" d="M356.19,172.61s-4,1.41,4,50.55h34c-.57-13.84-.59-22.38,6-50.79a101.12,101.12,0,0,0-14.45-1.91,110.53,110.53,0,0,0-15.45,0C363.72,171.07,356.19,172.61,356.19,172.61Z" transform="translate(0 -54.95)"/><path class="cls-26" d="M356.19,172.61s-4,1.41,4,50.55h34c-.57-13.84-.59-22.38,6-50.79a101.12,101.12,0,0,0-14.45-1.91,110.53,110.53,0,0,0-15.45,0C363.72,171.07,356.19,172.61,356.19,172.61Z" transform="translate(0 -54.95)"/><path class="cls-25" d="M391.5,241l-8.1-2.44,3.38,7.82s5.35.52,7.28-2.38Z" transform="translate(0 -54.95)"/><polygon class="cls-25" points="376.84 186.19 380.02 192.58 386.78 191.45 383.4 183.63 376.84 186.19"/><polygon class="cls-25" points="412.93 356.78 404.56 356.78 401.86 337.38 410.24 337.38 412.93 356.78"/><polygon class="cls-25" points="374.87 356.78 366.5 356.78 365.94 337.38 374.31 337.38 374.87 356.78"/><polygon class="cls-28" points="365.94 337.38 366.23 347.38 374.61 347.38 374.32 337.38 365.94 337.38"/><polygon class="cls-28" points="410.24 337.38 401.86 337.38 403.25 347.38 411.63 347.38 410.24 337.38"/><path class="cls-7" d="M369.18,223.16s4.86,57.5,9.91,89.9c4.07,26.17,22.14,87.34,22.14,87.34h11.42s-9.41-59.08-11.48-85c-5.23-65.5,3.94-77.09-6.95-92.28Z" transform="translate(0 -54.95)"/><path class="cls-9" d="M369.18,223.16s4.86,57.5,9.91,89.9c4.07,26.17,22.14,87.34,22.14,87.34h11.42s-9.41-59.08-11.48-85c-5.23-65.5,3.94-77.09-6.95-92.28Z" transform="translate(0 -54.95)"/><path class="cls-20" d="M379.56,245.78s-4.68,14.58-4.61,35.61c.81,7.11,1.67,14.17,2.55,20.71C380.18,296,385.11,278.22,379.56,245.78Z" transform="translate(0 -54.95)"/><path class="cls-7" d="M360.2,223.16s-6.61,64.53-6.06,90.07c.57,26.57,10.31,87.17,10.31,87.17h11.32s-1.79-59-.79-85.14c1.09-28.45,10.13-92.1,10.13-92.1Z" transform="translate(0 -54.95)"/><path class="cls-9" d="M360.2,223.16s-6.61,64.53-6.06,90.07c.57,26.57,10.31,87.17,10.31,87.17h11.32s-1.79-59-.79-85.14c1.09-28.45,10.13-92.1,10.13-92.1Z" transform="translate(0 -54.95)"/><path class="cls-7" d="M401.17,412.22a2.44,2.44,0,0,1-1.6-.43,1.16,1.16,0,0,1-.33-1.06.69.69,0,0,1,.4-.56c1-.43,3.52,1.2,3.8,1.39a.2.2,0,0,1,.09.2.19.19,0,0,1-.15.16A10.18,10.18,0,0,1,401.17,412.22Zm-1.12-1.73a.51.51,0,0,0-.25.05c-.06,0-.14.08-.16.25a.72.72,0,0,0,.2.7c.42.39,1.52.44,3,.15A7.27,7.27,0,0,0,400.05,410.49Z" transform="translate(0 -54.95)"/><path class="cls-7" d="M403.33,411.93a.16.16,0,0,1-.09,0c-.8-.45-2.32-2.26-2.14-3.2a.7.7,0,0,1,.67-.56,1,1,0,0,1,.84.27c.91.8.92,3.22.92,3.32a.19.19,0,0,1-.1.17A.17.17,0,0,1,403.33,411.93Zm-1.42-3.4h-.09c-.25,0-.31.14-.33.23-.11.58.84,1.94,1.63,2.57a4.49,4.49,0,0,0-.77-2.63A.64.64,0,0,0,401.91,408.53Z" transform="translate(0 -54.95)"/><path class="cls-7" d="M363.06,412.22a3.19,3.19,0,0,1-2-.51,1.1,1.1,0,0,1-.35-1,.63.63,0,0,1,.33-.53c1-.56,4.37,1.15,4.74,1.34a.2.2,0,0,1,.11.21.19.19,0,0,1-.16.16A14.34,14.34,0,0,1,363.06,412.22Zm-1.49-1.73a.79.79,0,0,0-.37.07.26.26,0,0,0-.13.22.72.72,0,0,0,.23.63c.51.46,1.89.54,3.74.23A10.78,10.78,0,0,0,361.57,410.49Z" transform="translate(0 -54.95)"/><path class="cls-7" d="M365.66,411.93l-.08,0c-1-.45-3-2.26-2.82-3.21,0-.22.2-.5.75-.56a1.46,1.46,0,0,1,1.1.35c1.05.87,1.24,3.13,1.25,3.22a.21.21,0,0,1-.08.18A.19.19,0,0,1,365.66,411.93Zm-2-3.4h-.12c-.36,0-.39.18-.4.23-.09.57,1.25,2,2.27,2.6a4.65,4.65,0,0,0-1.07-2.58A1.05,1.05,0,0,0,363.67,408.53Z" transform="translate(0 -54.95)"/><path class="cls-29" d="M365.37,143.3a.42.42,0,0,1-.35-.13,3.13,3.13,0,0,0-2.65-1.11.4.4,0,0,1-.45-.34.41.41,0,0,1,.33-.45,4,4,0,0,1,3.36,1.37.41.41,0,0,1,0,.56A.45.45,0,0,1,365.37,143.3Z" transform="translate(0 -54.95)"/><path class="cls-30" d="M363.63,148.27a18,18,0,0,1-1.77,4.61,2.91,2.91,0,0,0,2.45.11Z" transform="translate(0 -54.95)"/><path class="cls-29" d="M364.07,147c.09.67-.18,1.26-.62,1.32s-.87-.43-1-1.09.18-1.27.62-1.33S364,146.37,364.07,147Z" transform="translate(0 -54.95)"/><path class="cls-29" d="M363.3,146l-1.67-.23S362.63,146.85,363.3,146Z" transform="translate(0 -54.95)"/><path class="cls-29" d="M404,410.76h9.41a.65.65,0,0,1,.66.57l1.08,7.45a1.35,1.35,0,0,1-1.35,1.49c-3.28-.06-4.86-.25-9-.25-2.54,0-6.26.26-9.78.26s-3.7-3.48-2.24-3.79c6.57-1.41,7.6-3.36,9.82-5.22A2.17,2.17,0,0,1,404,410.76Z" transform="translate(0 -54.95)"/><path class="cls-29" d="M366.21,410.76h9.41a.67.67,0,0,1,.67.57l1.07,7.45a1.35,1.35,0,0,1-1.34,1.49c-3.28-.06-4.86-.25-9-.25-2.55,0-7.81.26-11.33.26s-3.7-3.48-2.24-3.79c6.56-1.41,9.15-3.36,11.36-5.22A2.21,2.21,0,0,1,366.21,410.76Z" transform="translate(0 -54.95)"/><path class="cls-27" d="M355.21,180.55v.2c.1,5.59.87,15,3.19,30.82L363.14,193Z" transform="translate(0 -54.95)"/><path class="cls-25" d="M361.94,183.42c-.94,4.75-2,9.4-3.26,14.07s-2.54,9.31-4.2,14l-.65,1.75-.71,1.76a9,9,0,0,1-.57,1.21,7.42,7.42,0,0,1-1,1.44,6.63,6.63,0,0,1-3.41,2,7.51,7.51,0,0,1-3.34,0,11.17,11.17,0,0,1-2.43-.8,19.87,19.87,0,0,1-3.64-2.21,43.69,43.69,0,0,1-5.62-5.17c-.86-.9-1.66-1.84-2.44-2.79s-1.53-1.9-2.27-2.95l3.17-2.81a74.74,74.74,0,0,0,10.85,8.14,14.84,14.84,0,0,0,2.62,1.2c.77.29,1.46.21,1.19.16a1,1,0,0,0-.45.18s0,0,0,0l.14-.43.53-1.58.5-1.63c1.3-4.39,2.41-9,3.51-13.52l3.13-13.76Z" transform="translate(0 -54.95)"/><path class="cls-25" d="M328.66,206.15l-4.58-6.48,6.23-.48s3.52,4.06,2.28,7.32Z" transform="translate(0 -54.95)"/><polygon class="cls-25" points="328.28 143.05 329.6 142.23 330.21 139.17 331.22 140.43 331.97 147.64 328.28 143.05"/><path class="cls-25" d="M386.22,141.52c.68,8.28,1.14,11.77-2.4,16.59-5.33,7.23-15.66,6.25-18.79-1.67-2.83-7.13-3.46-19.48,4.12-23.9A11.33,11.33,0,0,1,386.22,141.52Z" transform="translate(0 -54.95)"/><path class="cls-29" d="M367.71,131.61a7.79,7.79,0,0,0-4.57,8.94s6.51-2.81,6.77,7.62c.19,7.53-5,17.69-5,17.69s12.07,2.5,29.44-2.82C401.74,160.78,398.41,116.42,367.71,131.61Z" transform="translate(0 -54.95)"/><path class="cls-29" d="M367.09,136.22c-1.18,2.84-.87,8.46,3.78,7.86s3.29-5.29,3.29-5.29Z" transform="translate(0 -54.95)"/><path class="cls-25" d="M372.27,147.44a6.13,6.13,0,0,1-1.63,4.35c-1.46,1.54-3.29.5-3.79-1.46-.46-1.75-.25-4.68,1.66-5.5A2.73,2.73,0,0,1,372.27,147.44Z" transform="translate(0 -54.95)"/><polygon class="cls-7" points="413.5 345.82 400.45 345.82 399.06 341.27 413.95 341.62 413.5 345.82"/><path class="cls-7" d="M390.1,225H391c.19,0,.33-.09.31-.21l-.43-4c0-.11-.17-.21-.36-.21h-.92c-.18,0-.32.1-.31.21l.43,4C389.76,224.93,389.92,225,390.1,225Z" transform="translate(0 -54.95)"/><path class="cls-7" d="M367.74,225h.92c.18,0,.32-.09.31-.21l-.43-4c0-.11-.18-.21-.36-.21h-.92c-.19,0-.33.1-.31.21l.43,4C367.39,224.93,367.55,225,367.74,225Z" transform="translate(0 -54.95)"/><polygon class="cls-7" points="376.64 345.82 363.58 345.82 362.64 341.92 377.13 341.27 376.64 345.82"/><path class="cls-7" d="M394.73,221.17l1.53,3c.12.24-.16.48-.55.48H360c-.31,0-.56-.15-.58-.34l-.31-3c0-.21.25-.39.58-.39h34.45A.63.63,0,0,1,394.73,221.17Z" transform="translate(0 -54.95)"/><path class="cls-31" d="M394.73,221.17l1.53,3c.12.24-.16.48-.55.48H360c-.31,0-.56-.15-.58-.34l-.31-3c0-.21.25-.39.58-.39h34.45A.63.63,0,0,1,394.73,221.17Z" transform="translate(0 -54.95)"/><path class="cls-9" d="M390.1,225H391c.19,0,.33-.09.31-.21l-.43-4c0-.11-.17-.21-.36-.21h-.92c-.18,0-.32.1-.31.21l.43,4C389.76,224.93,389.92,225,390.1,225Z" transform="translate(0 -54.95)"/><path class="cls-9" d="M367.74,225h.92c.18,0,.32-.09.31-.21l-.43-4c0-.11-.18-.21-.36-.21h-.92c-.19,0-.33.1-.31.21l.43,4C367.39,224.93,367.55,225,367.74,225Z" transform="translate(0 -54.95)"/><path class="cls-7" d="M356.19,172.61c-3.45.88-5.86,15.09-5.86,15.09l13.32,9.05S369,179.83,366.31,176C363.54,172.08,361.23,171.33,356.19,172.61Z" transform="translate(0 -54.95)"/><path class="cls-26" d="M356.19,172.61c-3.45.88-5.86,15.09-5.86,15.09l13.32,9.05S369,179.83,366.31,176C363.54,172.08,361.23,171.33,356.19,172.61Z" transform="translate(0 -54.95)"/></g><g id="Mobile"><rect class="cls-7" x="86.02" y="215.61" width="68.97" height="145.67" rx="6.99"/><rect class="cls-9" x="86.02" y="215.61" width="68.97" height="145.67" rx="6.99"/><rect class="cls-7" x="82.67" y="215.61" width="68.97" height="145.67" rx="6.99"/><rect class="cls-12" x="82.67" y="215.61" width="68.97" height="145.67" rx="6.99"/><rect class="cls-5" x="82.67" y="223.64" width="68.97" height="125.18"/><rect class="cls-32" x="82.71" y="223.38" width="68.97" height="125.18"/><polygon class="cls-19" points="107.7 223.64 85.33 348.83 107.48 348.83 129.86 223.64 107.7 223.64"/><polygon class="cls-19" points="135.26 223.64 112.89 348.83 123.97 348.83 146.34 223.64 135.26 223.64"/><path class="cls-7" d="M120.27,409.57a3.11,3.11,0,1,1-3.11-3.11A3.11,3.11,0,0,1,120.27,409.57Z" transform="translate(0 -54.95)"/><path class="cls-21" d="M120.27,409.57a3.11,3.11,0,1,1-3.11-3.11A3.11,3.11,0,0,1,120.27,409.57Z" transform="translate(0 -54.95)"/><circle class="cls-7" cx="125.31" cy="219.31" r="1.1"/><path class="cls-7" d="M120.82,275.36H109a1.1,1.1,0,0,1-1.1-1.1h0a1.11,1.11,0,0,1,1.1-1.1h11.81a1.11,1.11,0,0,1,1.1,1.1h0A1.1,1.1,0,0,1,120.82,275.36Z" transform="translate(0 -54.95)"/><circle class="cls-21" cx="125.31" cy="219.31" r="1.1"/><path class="cls-21" d="M120.82,275.36H109a1.1,1.1,0,0,1-1.1-1.1h0a1.11,1.11,0,0,1,1.1-1.1h11.81a1.11,1.11,0,0,1,1.1,1.1h0A1.1,1.1,0,0,1,120.82,275.36Z" transform="translate(0 -54.95)"/></g></svg>